<?xml version="1.0"?>
<svg xmlns="http://www.w3.org/2000/svg" viewBox="0 0 50 50">
    <path d="M 7 9 C 4.243 9 2 11.243 2 14 L 2 36 C 2 38.757 4.243 41 7 41 L 43 41 C 45.757 41 48 38.757 48 36 L 48 14 C 48 11.243 45.757 9 43 9 L 7 9 z M 15 17 C 15.153375 17 15.2965 17.02325 15.4375 17.09375 L 21.4375 20.09375 C 21.9315 20.34175 22.15325 20.9435 21.90625 21.4375 C 21.73025 21.7885 21.367 22 21 22 C 20.85 22 20.7055 21.97725 20.5625 21.90625 L 15 19.125 L 9.4375 21.90625 C 8.9435 22.15525 8.34175 21.9315 8.09375 21.4375 C 7.84675 20.9435 8.0685 20.34075 8.5625 20.09375 L 14.5625 17.09375 C 14.703 17.02325 14.846625 17 15 17 z M 27 18 L 41 18 C 41.553 18 42 18.448 42 19 C 42 19.552 41.553 20 41 20 L 27 20 C 26.447 20 26 19.552 26 19 C 26 18.448 26.447 18 27 18 z M 27 22 L 38 22 C 38.553 22 39 22.448 39 23 C 39 23.552 38.553 24 38 24 L 27 24 C 26.447 24 26 23.552 26 23 C 26 22.448 26.447 22 27 22 z M 11.71875 23 L 18.28125 23 C 19.14425 23 19.9145 23.557 20.1875 24.375 L 21 26.84375 L 21 27 L 21 28 L 21 31 L 21 32 L 21 32.5 C 21 32.776 20.776 33 20.5 33 L 18.5 33 C 18.224 33 18 32.776 18 32.5 L 18 32 L 12 32 L 12 32.5 C 12 32.776 11.776 33 11.5 33 L 9.5 33 C 9.224 33 9 32.776 9 32.5 L 9 32 L 9 31 L 9 28 L 9 27 L 9 26.84375 L 9.8125 24.375 C 10.0855 23.557 10.85575 23 11.71875 23 z M 11.71875 25 L 11.0625 27 L 18.9375 27 L 18.28125 25 L 11.71875 25 z M 27 26 L 41 26 C 41.553 26 42 26.447 42 27 C 42 27.553 41.553 28 41 28 L 27 28 C 26.447 28 26 27.553 26 27 C 26 26.447 26.447 26 27 26 z M 11 29 C 10.447715 29 10 29.447715 10 30 C 10 30.552285 10.447715 31 11 31 C 11.552285 31 12 30.552285 12 30 C 12 29.447715 11.552285 29 11 29 z M 19 29 C 18.447715 29 18 29.447715 18 30 C 18 30.552285 18.447715 31 19 31 C 19.552285 31 20 30.552285 20 30 C 20 29.447715 19.552285 29 19 29 z M 27 30 L 38 30 C 38.553 30 39 30.447 39 31 C 39 31.553 38.553 32 38 32 L 27 32 C 26.447 32 26 31.553 26 31 C 26 30.447 26.447 30 27 30 z"/>
</svg>
